<svg version="1.1" id="Layer_1" xmlns="http://www.w3.org/2000/svg" xmlns:xlink="http://www.w3.org/1999/xlink" x="0px" y="0px"
	 width="100%" viewBox="0 0 200 200" enable-background="new 0 0 200 200" xml:space="preserve">
<path fill="#FEFDFE" opacity="1.000000" stroke="none" 
	d="
M143.000000,201.000000 
	C95.333336,201.000000 48.166672,201.000000 1.000006,201.000000 
	C1.000004,134.333344 1.000004,67.666679 1.000002,1.000015 
	C67.666656,1.000010 134.333313,1.000010 200.999969,1.000005 
	C200.999985,67.666649 200.999985,134.333298 201.000000,200.999969 
	C181.833328,201.000000 162.666672,201.000000 143.000000,201.000000 
M89.584091,137.953934 
	C89.742149,137.648041 89.900208,137.342148 89.998100,137.005188 
	C89.998100,137.005188 90.045029,137.054352 90.569977,136.792465 
	C90.811234,136.272797 91.052483,135.753143 91.000000,135.000000 
	C91.000000,135.000000 91.293968,135.233017 91.806168,134.928299 
	C91.980621,134.367035 92.155067,133.805771 92.014603,133.008453 
	C92.014603,133.008453 92.326698,133.242889 92.821266,132.798340 
	C92.992455,131.504883 93.163651,130.211411 93.577789,128.091110 
	C93.523010,126.085426 93.468231,124.079742 93.689339,121.374352 
	C93.597740,120.890366 93.506142,120.406372 93.602142,119.304359 
	C93.539856,118.235092 93.477570,117.165833 93.665909,115.603630 
	C93.101555,114.781845 92.537201,113.960060 91.342850,112.889351 
	C87.683983,112.195297 86.598259,113.963806 86.776749,117.353127 
	C86.951668,120.674706 86.913078,124.018021 86.768326,127.343094 
	C86.613602,130.897110 85.676826,134.224518 81.300362,134.290573 
	C76.880569,134.357285 75.873734,131.147308 75.799286,127.490715 
	C75.721306,123.661331 76.023491,119.796806 75.569626,116.018509 
	C75.426071,114.823509 73.411179,113.061218 72.205276,113.022148 
	C71.129257,112.987289 69.111336,114.910385 69.029495,116.076195 
	C68.704124,120.711143 68.571762,125.434578 69.106560,130.039444 
	C70.237206,139.774857 79.512276,144.022247 88.507141,138.896881 
	C88.705315,138.622040 88.903488,138.347214 89.017784,138.009537 
	C89.017784,138.009537 89.069725,138.100571 89.584091,137.953934 
M79.276993,71.952820 
	C79.147812,72.285591 79.018623,72.618370 78.978096,72.968597 
	C78.978096,72.968597 78.923538,72.896561 78.406532,73.235321 
	C78.119751,73.778328 77.832962,74.321342 77.192352,75.092560 
	C77.008507,75.321907 76.920097,75.583504 76.347084,76.227585 
	C75.517830,77.579308 74.688568,78.931038 73.789444,80.396645 
	C82.430069,86.871872 90.655312,93.095932 98.980675,99.183090 
	C99.826462,99.801491 101.700584,100.179298 102.378822,99.684212 
	C111.061798,93.345970 119.613686,86.828156 128.430374,80.181328 
	C127.072769,78.442024 126.072388,77.160400 124.873100,75.174706 
	C121.856178,71.908859 121.158020,68.051949 121.426720,63.702080 
	C121.726540,58.848465 121.495476,53.962059 121.495476,49.089924 
	C121.059349,48.969002 120.623230,48.848080 120.187103,48.727158 
	C116.681839,53.088436 113.012459,57.330585 109.729446,61.853195 
	C107.568741,64.829727 105.145317,65.910599 101.404755,65.990891 
	C97.094070,66.083427 94.214684,64.847992 91.841446,61.283970 
	C89.638062,57.975033 86.960289,54.971443 84.374619,51.932762 
	C83.330345,50.705528 81.975960,49.742180 80.762703,48.658745 
	C80.376877,48.890816 79.991051,49.122887 79.605225,49.354958 
	C80.011299,56.092506 80.417366,62.830055 80.294037,69.926376 
	C80.099884,70.525208 79.905731,71.124039 79.744461,71.890472 
	C79.744461,71.890472 79.774239,71.722290 79.276993,71.952820 
M108.515907,153.992706 
	C108.515907,153.992706 108.933655,153.964798 109.641479,154.085861 
	C111.921188,153.146927 114.200905,152.208008 117.168030,150.985962 
	C116.185799,150.295685 115.386139,149.284195 114.777519,149.388412 
	C112.772728,149.731705 110.837105,150.478943 108.469589,151.015076 
	C108.469589,151.015076 108.079811,151.140518 107.409035,151.136719 
	C106.537605,151.756989 105.666176,152.377258 104.459496,153.101425 
	C104.599220,153.253769 104.738953,153.406113 105.521141,153.533844 
	C105.947708,153.504684 106.374283,153.475510 107.150551,153.792282 
	C107.150551,153.792282 107.611847,153.967911 107.611847,153.967911 
	C107.611847,153.967911 108.103302,153.921646 108.515907,153.992706 
M76.232414,151.238693 
	C76.463600,152.116837 76.694794,152.994995 77.600693,153.864639 
	C78.294891,154.007080 78.989098,154.149536 79.683296,154.291977 
	C79.500488,153.464676 79.317680,152.637360 78.877846,151.321869 
	C78.395462,150.838501 77.913071,150.355133 77.430679,149.871765 
	C77.281921,150.283661 77.133163,150.695541 76.232414,151.238693 
M34.455475,149.415054 
	C32.736343,149.766327 31.017210,150.117584 29.341833,150.544968 
	C29.341833,150.544968 29.306108,150.625183 29.031218,149.950394 
	C25.007366,147.361084 21.048685,147.960434 16.827553,150.025909 
	C17.062386,151.735214 17.266191,153.218689 17.469999,154.702164 
	C17.751087,155.279648 18.032177,155.857147 18.313267,156.434631 
	C19.991734,149.248062 22.964928,155.794220 25.803825,154.007889 
	C27.082865,153.664017 28.361902,153.320145 30.250322,153.255325 
	C32.519115,155.664215 33.608082,154.734100 34.684978,151.954620 
	C35.121349,151.943359 35.557720,151.932098 36.146317,152.434174 
	C36.433868,152.627396 36.721420,152.820618 36.997253,152.997040 
	C36.997253,152.997040 36.981667,152.980927 37.126270,153.611298 
	C38.632370,153.928909 40.138474,154.246521 41.644573,154.564133 
	C41.910599,154.206406 42.176620,153.848679 42.442642,153.490952 
	C41.694645,152.404221 41.155613,150.759277 40.142750,150.380112 
	C39.020538,149.960037 37.465218,150.696945 35.914154,150.417145 
	C35.604500,150.248093 35.294846,150.079041 34.455475,149.415054 
M122.915337,124.125862 
	C122.496864,124.995796 122.078392,125.865723 121.467468,127.135727 
	C120.175179,123.226227 119.244270,119.669342 117.784790,116.344482 
	C117.165794,114.934341 115.444229,113.125092 114.211670,113.115883 
	C112.980713,113.106682 111.236023,114.893318 110.595963,116.294411 
	C109.132294,119.498482 108.205475,122.947784 106.637733,127.534790 
	C105.094063,122.838516 103.963722,119.548607 102.936905,116.226692 
	C102.176682,113.767281 101.223854,111.829689 98.060135,113.007164 
	C95.176468,114.080421 95.611092,116.095390 96.389099,118.293289 
	C98.550331,124.398857 100.556847,130.564621 102.930733,136.585876 
	C103.570862,138.209534 105.302391,139.402908 106.532944,140.793793 
	C107.884766,139.333755 109.664215,138.080841 110.493958,136.367905 
	C111.947868,133.366425 112.819244,130.082764 114.257095,126.002243 
	C115.801552,130.591766 116.783844,134.131027 118.220863,137.474869 
	C118.793365,138.807037 120.310196,140.484024 121.509293,140.578354 
	C122.635841,140.667007 124.542076,139.116241 125.014557,137.872482 
	C127.607170,131.047653 129.999191,124.135910 132.098450,117.145416 
	C132.431244,116.037216 131.194031,113.507614 130.199875,113.201073 
	C129.061432,112.850052 126.670830,113.864311 126.083664,114.960190 
	C124.692070,117.557457 124.045082,120.553696 122.915337,124.125862 
M142.012253,127.169235 
	C143.135696,127.906288 144.354706,128.533859 145.357513,129.409119 
	C146.513748,130.418320 147.479156,131.646164 148.527435,132.779053 
	C146.782440,133.293320 145.029083,134.197906 143.295868,134.160828 
	C142.399170,134.141663 141.701096,132.078827 140.621674,131.608307 
	C139.126419,130.956558 137.265427,130.520737 135.750717,130.854141 
	C135.172928,130.981323 134.562149,133.656738 134.928497,134.883530 
	C136.164703,139.023361 139.413727,140.867477 143.573013,141.197632 
	C148.003128,141.549271 151.925674,140.467941 154.340363,136.436615 
	C156.620163,132.630478 155.486542,129.167084 152.603561,126.186783 
	C156.107132,121.235107 155.392593,116.700043 150.765671,113.860039 
	C145.990814,110.929230 138.850616,112.094536 136.627777,116.535370 
	C135.957352,117.874718 136.792938,119.967903 136.938660,121.715775 
	C138.613892,121.394798 140.789902,121.622765 141.863998,120.642860 
	C144.392685,118.335938 146.187119,118.146996 148.021088,120.786293 
	C145.838608,122.795357 143.901611,124.578445 142.012253,127.169235 
M46.000427,116.002617 
	C45.994862,122.803581 45.748116,129.619232 46.160652,136.394745 
	C46.258492,138.001678 48.401054,140.571793 49.890709,140.797089 
	C53.944679,141.410263 58.163254,141.184341 62.295586,140.938217 
	C64.839142,140.786697 67.244850,139.911621 65.670120,135.809097 
	C61.666912,135.809097 57.463642,135.809097 53.120876,135.809097 
	C53.120876,129.269516 53.258320,123.303818 53.024277,117.352722 
	C52.965740,115.864304 51.829010,113.295090 50.981197,113.206810 
	C49.458607,113.048248 47.779507,114.392593 46.000427,116.002617 
M101.944496,149.979553 
	C100.062820,149.979553 98.181137,149.979553 95.322952,149.979553 
	C95.087677,150.249329 94.032616,151.459122 92.971786,152.679703 
	C97.453987,155.642105 101.355232,154.735138 101.944496,149.979553 
M180.058456,152.551117 
	C181.052170,152.698807 182.045883,152.846481 183.039597,152.994156 
	C183.113510,151.932129 183.187424,150.870102 183.261337,149.808075 
	C182.854492,149.614914 182.447662,149.421738 182.040817,149.228561 
	C181.408768,150.113922 180.776718,150.999283 180.058456,152.551117 
M133.010788,153.360611 
	C133.531265,153.226593 134.051743,153.092575 134.572220,152.958542 
	C134.389908,152.610886 134.207581,152.263214 134.025269,151.915558 
	C133.532272,152.252243 133.039261,152.588943 133.010788,153.360611 
M60.129459,153.456726 
	C60.157318,152.919830 60.185177,152.382919 60.213028,151.846024 
	C59.614189,151.992126 59.015350,152.138229 58.416515,152.284332 
	C58.795681,152.779526 59.174843,153.274734 60.129459,153.456726 
M19.590601,146.517441 
	C19.590601,146.517441 19.477152,146.585602 19.590601,146.517441 
z"/>
<path fill="#2D124E" opacity="1.000000" stroke="none" 
	d="
M123.006226,123.757263 
	C124.045082,120.553696 124.692070,117.557457 126.083664,114.960190 
	C126.670830,113.864311 129.061432,112.850052 130.199875,113.201073 
	C131.194031,113.507614 132.431244,116.037216 132.098450,117.145416 
	C129.999191,124.135910 127.607170,131.047653 125.014557,137.872482 
	C124.542076,139.116241 122.635841,140.667007 121.509293,140.578354 
	C120.310196,140.484024 118.793365,138.807037 118.220863,137.474869 
	C116.783844,134.131027 115.801552,130.591766 114.257095,126.002243 
	C112.819244,130.082764 111.947868,133.366425 110.493958,136.367905 
	C109.664215,138.080841 107.884766,139.333755 106.532944,140.793793 
	C105.302391,139.402908 103.570862,138.209534 102.930733,136.585876 
	C100.556847,130.564621 98.550331,124.398857 96.389099,118.293289 
	C95.611092,116.095390 95.176468,114.080421 98.060135,113.007164 
	C101.223854,111.829689 102.176682,113.767281 102.936905,116.226692 
	C103.963722,119.548607 105.094063,122.838516 106.637733,127.534790 
	C108.205475,122.947784 109.132294,119.498482 110.595963,116.294411 
	C111.236023,114.893318 112.980713,113.106682 114.211670,113.115883 
	C115.444229,113.125092 117.165794,114.934341 117.784790,116.344482 
	C119.244270,119.669342 120.175179,123.226227 121.467468,127.135727 
	C122.078392,125.865723 122.496864,124.995796 123.006226,123.757263 
z"/>
<path fill="#2E134E" opacity="1.000000" stroke="none" 
	d="
M141.988434,126.765381 
	C143.901611,124.578445 145.838608,122.795357 148.021088,120.786293 
	C146.187119,118.146996 144.392685,118.335938 141.863998,120.642860 
	C140.789902,121.622765 138.613892,121.394798 136.938660,121.715775 
	C136.792938,119.967903 135.957352,117.874718 136.627777,116.535370 
	C138.850616,112.094536 145.990814,110.929230 150.765671,113.860039 
	C155.392593,116.700043 156.107132,121.235107 152.603561,126.186783 
	C155.486542,129.167084 156.620163,132.630478 154.340363,136.436615 
	C151.925674,140.467941 148.003128,141.549271 143.573013,141.197632 
	C139.413727,140.867477 136.164703,139.023361 134.928497,134.883530 
	C134.562149,133.656738 135.172928,130.981323 135.750717,130.854141 
	C137.265427,130.520737 139.126419,130.956558 140.621674,131.608307 
	C141.701096,132.078827 142.399170,134.141663 143.295868,134.160828 
	C145.029083,134.197906 146.782440,133.293320 148.527435,132.779053 
	C147.479156,131.646164 146.513748,130.418320 145.357513,129.409119 
	C144.354706,128.533859 143.135696,127.906288 141.988434,126.765381 
z"/>
<path fill="#2E124E" opacity="1.000000" stroke="none" 
	d="
M87.985626,138.960632 
	C79.512276,144.022247 70.237206,139.774857 69.106560,130.039444 
	C68.571762,125.434578 68.704124,120.711143 69.029495,116.076195 
	C69.111336,114.910385 71.129257,112.987289 72.205276,113.022148 
	C73.411179,113.061218 75.426071,114.823509 75.569626,116.018509 
	C76.023491,119.796806 75.721306,123.661331 75.799286,127.490715 
	C75.873734,131.147308 76.880569,134.357285 81.300362,134.290573 
	C85.676826,134.224518 86.613602,130.897110 86.768326,127.343094 
	C86.913078,124.018021 86.951668,120.674706 86.776749,117.353127 
	C86.598259,113.963806 87.683983,112.195297 91.695206,113.363861 
	C92.503464,114.591110 92.959373,115.343834 93.415283,116.096565 
	C93.477570,117.165833 93.539856,118.235092 93.289368,119.685471 
	C93.122215,120.735748 93.267830,121.404900 93.413452,122.074059 
	C93.468231,124.079742 93.523010,126.085426 93.174828,128.684479 
	C92.623474,130.599533 92.475090,131.921204 92.326698,133.242889 
	C92.326698,133.242889 92.014603,133.008453 91.874466,133.239258 
	C91.587547,134.057709 91.440758,134.645355 91.293968,135.233017 
	C91.293968,135.233017 91.000000,135.000000 90.858582,135.216766 
	C90.493111,135.973801 90.269066,136.514084 90.045029,137.054352 
	C90.045029,137.054352 89.998100,137.005188 89.792389,137.122833 
	C89.414360,137.527176 89.242043,137.813873 89.069725,138.100571 
	C89.069725,138.100571 89.017784,138.009537 88.813690,138.099823 
	C88.401604,138.446930 88.193619,138.703781 87.985626,138.960632 
z"/>
<path fill="#4754A3" opacity="1.000000" stroke="none" 
	d="
M80.823441,69.567604 
	C80.417366,62.830055 80.011299,56.092506 79.605225,49.354958 
	C79.991051,49.122887 80.376877,48.890816 80.762703,48.658745 
	C81.975960,49.742180 83.330345,50.705528 84.374619,51.932762 
	C86.960289,54.971443 89.638062,57.975033 91.841446,61.283970 
	C94.214684,64.847992 97.094070,66.083427 101.404755,65.990891 
	C105.145317,65.910599 107.568741,64.829727 109.729446,61.853195 
	C113.012459,57.330585 116.681839,53.088436 120.187103,48.727158 
	C120.623230,48.848080 121.059349,48.969002 121.495476,49.089924 
	C121.495476,53.962059 121.726540,58.848465 121.426720,63.702080 
	C121.158020,68.051949 121.856178,71.908859 124.807922,75.874596 
	C124.389320,77.256783 124.035896,77.939079 123.426003,78.398445 
	C122.092194,76.503799 121.014862,74.832085 119.866737,72.918015 
	C119.551338,72.452057 119.306717,72.228447 118.825729,71.705940 
	C118.294205,66.862358 117.999054,62.317669 117.651138,56.960354 
	C114.955826,60.316879 112.809242,63.019684 110.630730,65.696503 
	C106.763527,70.448257 95.269966,70.469772 91.400536,65.727890 
	C88.993629,62.778294 86.626022,59.796616 84.240776,56.829334 
	C83.834106,57.044830 83.427429,57.260323 83.020752,57.475815 
	C83.020752,59.578979 83.125122,61.688633 82.994980,63.783710 
	C82.822777,66.555908 82.467064,69.316704 81.896591,72.057205 
	C81.406570,72.026016 81.210190,72.020027 81.005280,72.005295 
	C80.996758,71.996536 80.979958,71.978752 80.971001,71.576218 
	C80.915840,70.638329 80.869644,70.102966 80.823441,69.567604 
z"/>
<path fill="#230646" opacity="1.000000" stroke="none" 
	d="
M46.083118,115.555779 
	C47.779507,114.392593 49.458607,113.048248 50.981197,113.206810 
	C51.829010,113.295090 52.965740,115.864304 53.024277,117.352722 
	C53.258320,123.303818 53.120876,129.269516 53.120876,135.809097 
	C57.463642,135.809097 61.666912,135.809097 65.670120,135.809097 
	C67.244850,139.911621 64.839142,140.786697 62.295586,140.938217 
	C58.163254,141.184341 53.944679,141.410263 49.890709,140.797089 
	C48.401054,140.571793 46.258492,138.001678 46.160652,136.394745 
	C45.748116,129.619232 45.994862,122.803581 46.083118,115.555779 
z"/>
<path fill="#515CA7" opacity="1.000000" stroke="none" 
	d="
M123.682480,78.621376 
	C124.035896,77.939079 124.389320,77.256783 124.907379,76.226624 
	C126.072388,77.160400 127.072769,78.442024 128.430374,80.181328 
	C119.613686,86.828156 111.061798,93.345970 102.378822,99.684212 
	C101.700584,100.179298 99.826462,99.801491 98.980675,99.183090 
	C90.655312,93.095932 82.430069,86.871872 73.789444,80.396645 
	C74.688568,78.931038 75.517830,77.579308 76.852921,76.339767 
	C78.027534,76.685699 78.696304,76.919449 79.268143,77.459442 
	C79.572754,78.911400 79.632080,80.474869 80.434021,81.131813 
	C84.275780,84.278931 88.324852,87.172348 92.288673,90.171219 
	C100.991463,96.755455 101.043831,96.830681 109.717865,90.127014 
	C114.487755,86.440628 119.034904,82.466034 123.682480,78.621376 
z"/>
<path fill="#F9F5F6" opacity="1.000000" stroke="none" 
	d="
M25.146143,153.940125 
	C22.964928,155.794220 19.991734,149.248062 18.313267,156.434631 
	C18.032177,155.857147 17.751087,155.279648 17.469999,154.702164 
	C17.266191,153.218689 17.062386,151.735214 16.827553,150.025909 
	C21.048685,147.960434 25.007366,147.361084 29.275085,150.635498 
	C28.061350,152.193771 26.603746,153.066940 25.146143,153.940125 
M24.414164,150.482819 
	C24.414164,150.482819 24.521593,150.416748 24.414164,150.482819 
z"/>
<path fill="#DDC9E6" opacity="1.000000" stroke="none" 
	d="
M102.125664,150.244507 
	C101.355232,154.735138 97.453987,155.642105 92.974670,152.674316 
	C94.032616,151.459122 95.087677,150.249329 95.322952,149.979553 
	C98.181137,149.979553 100.062820,149.979553 102.125664,150.244507 
z"/>
<path fill="#D4CBD6" opacity="1.000000" stroke="none" 
	d="
M108.874916,151.071045 
	C110.837105,150.478943 112.772728,149.731705 114.777519,149.388412 
	C115.386139,149.284195 116.185799,150.295685 117.168030,150.985962 
	C114.200905,152.208008 111.921188,153.146927 109.320427,153.663757 
	C108.957886,152.518112 108.916397,151.794586 108.874916,151.071045 
z"/>
<path fill="#D4CBD6" opacity="1.000000" stroke="none" 
	d="
M37.008980,153.013840 
	C36.721420,152.820618 36.433868,152.627396 36.064026,151.926819 
	C36.020660,151.256317 36.059582,151.093170 36.098499,150.930023 
	C37.465218,150.696945 39.020538,149.960037 40.142750,150.380112 
	C41.155613,150.759277 41.694645,152.404221 42.442642,153.490952 
	C42.176620,153.848679 41.910599,154.206406 41.644573,154.564133 
	C40.138474,154.246521 38.632370,153.928909 37.297306,153.320343 
	C37.753822,152.924881 38.039303,152.820374 38.324783,152.715881 
	C38.247158,152.585648 38.169533,152.455414 38.091911,152.325180 
	C37.730938,152.554733 37.369957,152.784286 37.008980,153.013840 
z"/>
<path fill="#F9F5F6" opacity="1.000000" stroke="none" 
	d="
M29.298077,150.468842 
	C31.017210,150.117584 32.736343,149.766327 34.630154,149.930038 
	C34.546932,150.936478 34.289028,151.427933 34.031128,151.919388 
	C33.608082,154.734100 32.519115,155.664215 29.784405,152.826584 
	C29.311682,151.754837 29.304878,151.111847 29.298077,150.468842 
z"/>
<path fill="#4754A3" opacity="1.000000" stroke="none" 
	d="
M79.365074,77.153198 
	C78.696304,76.919449 78.027534,76.685699 77.142944,76.164650 
	C76.920097,75.583504 77.008507,75.321907 77.695839,74.887146 
	C78.440727,74.086678 78.682129,73.491615 78.923538,72.896561 
	C78.923538,72.896561 78.978096,72.968597 79.181915,72.840279 
	C79.515228,72.382072 79.644737,72.052177 79.774239,71.722290 
	C79.774239,71.722290 79.744461,71.890472 80.041275,71.891319 
	C80.552040,71.921021 80.765999,71.949883 80.979958,71.978752 
	C80.979958,71.978752 80.996758,71.996536 81.007584,72.394531 
	C81.061737,73.311073 81.105064,73.829605 81.096207,74.628014 
	C80.484375,75.656319 79.924721,76.404762 79.365074,77.153198 
z"/>
<path fill="#DDC9E6" opacity="1.000000" stroke="none" 
	d="
M180.101562,152.217880 
	C180.776718,150.999283 181.408768,150.113922 182.040817,149.228561 
	C182.447662,149.421738 182.854492,149.614914 183.261337,149.808075 
	C183.187424,150.870102 183.113510,151.932129 183.039597,152.994156 
	C182.045883,152.846481 181.052170,152.698807 180.101562,152.217880 
z"/>
<path fill="#4A3666" opacity="1.000000" stroke="none" 
	d="
M29.319954,150.506897 
	C29.304878,151.111847 29.311682,151.754837 29.479713,152.687057 
	C28.361902,153.320145 27.082865,153.664017 25.474983,153.973999 
	C26.603746,153.066940 28.061350,152.193771 29.412529,150.972885 
	C29.306108,150.625183 29.341833,150.544968 29.319954,150.506897 
z"/>
<path fill="#817291" opacity="1.000000" stroke="none" 
	d="
M79.134872,151.810059 
	C79.317680,152.637360 79.500488,153.464676 79.683296,154.291977 
	C78.989098,154.149536 78.294891,154.007080 77.293808,153.544281 
	C77.031105,152.791748 77.075294,152.359589 77.456482,151.944580 
	C78.240616,151.911179 78.687744,151.860611 79.134872,151.810059 
z"/>
<path fill="#4A3666" opacity="1.000000" stroke="none" 
	d="
M92.573982,133.020615 
	C92.475090,131.921204 92.623474,130.599533 93.053352,129.097900 
	C93.163651,130.211411 92.992455,131.504883 92.573982,133.020615 
z"/>
<path fill="#4A3666" opacity="1.000000" stroke="none" 
	d="
M93.540596,115.850098 
	C92.959373,115.343834 92.503464,114.591110 92.010208,113.488327 
	C92.537201,113.960060 93.101555,114.781845 93.540596,115.850098 
z"/>
<path fill="#77638D" opacity="1.000000" stroke="none" 
	d="
M132.778534,153.143127 
	C133.039261,152.588943 133.532272,152.252243 134.025269,151.915558 
	C134.207581,152.263214 134.389908,152.610886 134.572220,152.958542 
	C134.051743,153.092575 133.531265,153.226593 132.778534,153.143127 
z"/>
<path fill="#4A3666" opacity="1.000000" stroke="none" 
	d="
M93.551392,121.724205 
	C93.267830,121.404900 93.122215,120.735748 93.195572,119.994492 
	C93.506142,120.406372 93.597740,120.890366 93.551392,121.724205 
z"/>
<path fill="#B9A7CF" opacity="1.000000" stroke="none" 
	d="
M79.006363,151.565964 
	C78.687744,151.860611 78.240616,151.911179 77.405121,151.742462 
	C77.016762,151.523209 76.984406,151.107437 76.984406,151.107437 
	C77.133163,150.695541 77.281921,150.283661 77.430679,149.871765 
	C77.913071,150.355133 78.395462,150.838501 79.006363,151.565964 
z"/>
<path fill="#725C85" opacity="1.000000" stroke="none" 
	d="
M104.794754,152.997528 
	C105.666176,152.377258 106.537605,151.756989 107.716965,151.467773 
	C107.961121,152.234467 107.897354,152.670120 107.560448,153.145569 
	C107.125153,153.272369 106.962997,153.359360 106.800850,153.446335 
	C106.374283,153.475510 105.947708,153.504684 105.278702,153.390991 
	C105.036255,153.248123 104.794754,152.997528 104.794754,152.997528 
z"/>
<path fill="#77638D" opacity="1.000000" stroke="none" 
	d="
M59.841736,153.613327 
	C59.174843,153.274734 58.795681,152.779526 58.416512,152.284332 
	C59.015350,152.138229 59.614189,151.992126 60.213028,151.846024 
	C60.185177,152.382919 60.157318,152.919830 59.841736,153.613327 
z"/>
<path fill="#9F94AA" opacity="1.000000" stroke="none" 
	d="
M34.358055,151.937012 
	C34.289028,151.427933 34.546932,150.936478 34.895012,150.177505 
	C35.294846,150.079041 35.604500,150.248093 36.006325,150.673584 
	C36.059582,151.093170 36.020660,151.256317 35.987915,151.670166 
	C35.557720,151.932098 35.121349,151.943359 34.358055,151.937012 
z"/>
<path fill="#301B50" opacity="1.000000" stroke="none" 
	d="
M76.608414,151.173065 
	C76.984406,151.107437 77.016762,151.523209 77.068115,151.725311 
	C77.075294,152.359589 77.031105,152.791748 76.956451,153.548523 
	C76.694794,152.994995 76.463600,152.116837 76.608414,151.173065 
z"/>
<path fill="#140139" opacity="1.000000" stroke="none" 
	d="
M107.833588,153.105759 
	C107.897354,152.670120 107.961121,152.234467 108.052353,151.469666 
	C108.079811,151.140518 108.469589,151.015076 108.672256,151.043060 
	C108.916397,151.794586 108.957886,152.518112 108.966515,153.603226 
	C108.933655,153.964798 108.515907,153.992706 108.239647,153.754044 
	C107.963387,153.515381 107.833580,153.105759 107.833588,153.105759 
z"/>
<path fill="#4A3666" opacity="1.000000" stroke="none" 
	d="
M90.307503,136.923401 
	C90.269066,136.514084 90.493111,135.973801 91.005447,135.333511 
	C91.052483,135.753143 90.811234,136.272797 90.307503,136.923401 
z"/>
<path fill="#4A3666" opacity="1.000000" stroke="none" 
	d="
M91.550064,135.080658 
	C91.440758,134.645355 91.587547,134.057709 92.031929,133.357269 
	C92.155067,133.805771 91.980621,134.367035 91.550064,135.080658 
z"/>
<path fill="#515CA7" opacity="1.000000" stroke="none" 
	d="
M78.665039,73.065941 
	C78.682129,73.491615 78.440727,74.086678 77.872749,74.773041 
	C77.832962,74.321342 78.119751,73.778328 78.665039,73.065941 
z"/>
<path fill="#515CA7" opacity="1.000000" stroke="none" 
	d="
M80.971001,71.576218 
	C80.765999,71.949883 80.552040,71.921021 80.024834,71.807518 
	C79.905731,71.124039 80.099884,70.525208 80.558746,69.746994 
	C80.869644,70.102966 80.915840,70.638329 80.971001,71.576218 
z"/>
<path fill="#B3A5C1" opacity="1.000000" stroke="none" 
	d="
M104.957466,153.403290 
	C104.738953,153.406113 104.599220,153.253769 104.627121,153.049469 
	C104.794754,152.997528 105.036255,153.248123 104.957466,153.403290 
z"/>
<path fill="#B3A5C1" opacity="1.000000" stroke="none" 
	d="
M107.560440,153.145569 
	C107.833580,153.105759 107.963387,153.515381 108.033340,153.718506 
	C108.103302,153.921646 107.611847,153.967911 107.611847,153.967911 
	C107.611847,153.967911 107.150551,153.792282 106.975700,153.619308 
	C106.962997,153.359360 107.125153,153.272369 107.560440,153.145569 
z"/>
<path fill="#F9F5F6" opacity="1.000000" stroke="none" 
	d="
M19.533876,146.551514 
	C19.477152,146.585602 19.590601,146.517441 19.533876,146.551514 
z"/>
<path fill="#4A3666" opacity="1.000000" stroke="none" 
	d="
M88.246384,138.928757 
	C88.193619,138.703781 88.401604,138.446930 88.855621,138.131241 
	C88.903488,138.347214 88.705315,138.622040 88.246384,138.928757 
z"/>
<path fill="#4A3666" opacity="1.000000" stroke="none" 
	d="
M89.326904,138.027252 
	C89.242043,137.813873 89.414360,137.527176 89.822472,137.138367 
	C89.900208,137.342148 89.742149,137.648041 89.326904,138.027252 
z"/>
<path fill="#515CA7" opacity="1.000000" stroke="none" 
	d="
M79.525620,71.837555 
	C79.644737,72.052177 79.515228,72.382072 79.137581,72.831551 
	C79.018623,72.618370 79.147812,72.285591 79.525620,71.837555 
z"/>
<path fill="#FBFBFC" opacity="1.000000" stroke="none" 
	d="
M79.268143,77.459442 
	C79.924721,76.404762 80.484375,75.656319 81.363693,74.435036 
	C81.852325,73.335594 82.021278,72.708992 82.190224,72.082397 
	C82.467064,69.316704 82.822777,66.555908 82.994980,63.783710 
	C83.125122,61.688633 83.020752,59.578979 83.020752,57.475815 
	C83.427429,57.260323 83.834106,57.044830 84.240776,56.829334 
	C86.626022,59.796616 88.993629,62.778294 91.400536,65.727890 
	C95.269966,70.469772 106.763527,70.448257 110.630730,65.696503 
	C112.809242,63.019684 114.955826,60.316879 117.651138,56.960354 
	C117.999054,62.317669 118.294205,66.862358 118.837997,71.976303 
	C119.370270,72.750504 119.653900,72.955437 119.937523,73.160370 
	C121.014862,74.832085 122.092194,76.503799 123.426003,78.398445 
	C119.034904,82.466034 114.487755,86.440628 109.717865,90.127014 
	C101.043831,96.830681 100.991463,96.755455 92.288673,90.171219 
	C88.324852,87.172348 84.275780,84.278931 80.434021,81.131813 
	C79.632080,80.474869 79.572754,78.911400 79.268143,77.459442 
z"/>
<path fill="#515CA7" opacity="1.000000" stroke="none" 
	d="
M81.896591,72.057205 
	C82.021278,72.708992 81.852325,73.335594 81.415878,74.155167 
	C81.105064,73.829605 81.061737,73.311073 81.016113,72.403290 
	C81.210190,72.020027 81.406570,72.026016 81.896591,72.057205 
z"/>
<path fill="#515CA7" opacity="1.000000" stroke="none" 
	d="
M119.866737,72.918015 
	C119.653900,72.955437 119.370270,72.750504 119.074371,72.275208 
	C119.306717,72.228447 119.551338,72.452057 119.866737,72.918015 
z"/>
<path fill="#FEFDFE" opacity="1.000000" stroke="none" 
	d="
M24.467878,150.449783 
	C24.521593,150.416748 24.414164,150.482819 24.467878,150.449783 
z"/>
<path fill="#FEFDFE" opacity="1.000000" stroke="none" 
	d="
M37.003117,153.005432 
	C37.369957,152.784286 37.730938,152.554733 38.091911,152.325180 
	C38.169533,152.455414 38.247158,152.585648 38.324783,152.715881 
	C38.039303,152.820374 37.753822,152.924881 37.225006,153.005157 
	C36.981667,152.980927 36.997253,152.997040 37.003117,153.005432 
z"/>
</svg>